<svg xmlns="http://www.w3.org/2000/svg" viewBox="0 0 1200 750" width="1200" height="750" role="img"><defs><linearGradient id="bg3092" x1="0" y1="0" x2="0" y2="1"><stop offset="0" stop-color="#0a4f63"/><stop offset="0.55" stop-color="#083d52"/><stop offset="1" stop-color="#052734"/></linearGradient><radialGradient id="glow3092" cx="50%" cy="10%" r="70%"><stop offset="0" stop-color="#ffffff" stop-opacity=".35"/><stop offset="1" stop-color="#ffffff" stop-opacity="0"/></radialGradient></defs><rect width="1200" height="750" fill="url(#bg3092)"/><rect width="1200" height="750" fill="url(#glow3092)"/><polygon points="90,0 160,0 330,750 210,750" fill="#ffffff" opacity="0.08"/><polygon points="255,0 325,0 495,750 375,750" fill="#ffffff" opacity="0.08"/><polygon points="420,0 490,0 660,750 540,750" fill="#ffffff" opacity="0.08"/><polygon points="585,0 655,0 825,750 705,750" fill="#ffffff" opacity="0.08"/><polygon points="750,0 820,0 990,750 870,750" fill="#ffffff" opacity="0.08"/><polygon points="915,0 985,0 1155,750 1035,750" fill="#ffffff" opacity="0.08"/><polygon points="1080,0 1150,0 1320,750 1200,750" fill="#ffffff" opacity="0.08"/><circle cx="946" cy="613" r="10" fill="none" stroke="#ffffff" stroke-width="1.6" opacity="0.28"/><circle cx="408" cy="229" r="11" fill="none" stroke="#ffffff" stroke-width="1.6" opacity="0.28"/><circle cx="401" cy="136" r="10" fill="none" stroke="#ffffff" stroke-width="1.6" opacity="0.24"/><circle cx="205" cy="591" r="13" fill="none" stroke="#ffffff" stroke-width="1.6" opacity="0.17"/><circle cx="831" cy="503" r="13" fill="none" stroke="#ffffff" stroke-width="1.6" opacity="0.35"/><circle cx="342" cy="678" r="3" fill="none" stroke="#ffffff" stroke-width="1.6" opacity="0.38"/><circle cx="149" cy="100" r="3" fill="none" stroke="#ffffff" stroke-width="1.6" opacity="0.21"/><circle cx="515" cy="654" r="3" fill="none" stroke="#ffffff" stroke-width="1.6" opacity="0.36"/><circle cx="688" cy="491" r="12" fill="none" stroke="#ffffff" stroke-width="1.6" opacity="0.38"/><circle cx="1083" cy="279" r="13" fill="none" stroke="#ffffff" stroke-width="1.6" opacity="0.24"/><circle cx="29" cy="127" r="10" fill="none" stroke="#ffffff" stroke-width="1.6" opacity="0.33"/><circle cx="853" cy="604" r="4" fill="none" stroke="#ffffff" stroke-width="1.6" opacity="0.34"/><circle cx="665" cy="275" r="11" fill="none" stroke="#ffffff" stroke-width="1.6" opacity="0.24"/><circle cx="163" cy="616" r="4" fill="none" stroke="#ffffff" stroke-width="1.6" opacity="0.26"/><circle cx="615" cy="435" r="4" fill="none" stroke="#ffffff" stroke-width="1.6" opacity="0.41"/><circle cx="21" cy="258" r="6" fill="none" stroke="#ffffff" stroke-width="1.6" opacity="0.40"/><circle cx="127" cy="521" r="9" fill="none" stroke="#ffffff" stroke-width="1.6" opacity="0.41"/><circle cx="833" cy="469" r="4" fill="none" stroke="#ffffff" stroke-width="1.6" opacity="0.31"/><circle cx="426" cy="316" r="8" fill="none" stroke="#ffffff" stroke-width="1.6" opacity="0.18"/><circle cx="701" cy="55" r="9" fill="none" stroke="#ffffff" stroke-width="1.6" opacity="0.36"/><circle cx="261" cy="177" r="6" fill="none" stroke="#ffffff" stroke-width="1.6" opacity="0.34"/><circle cx="42" cy="101" r="10" fill="none" stroke="#ffffff" stroke-width="1.6" opacity="0.37"/><circle cx="383" cy="612" r="6" fill="none" stroke="#ffffff" stroke-width="1.6" opacity="0.28"/><circle cx="410" cy="174" r="9" fill="none" stroke="#ffffff" stroke-width="1.6" opacity="0.33"/><g transform="translate(520,340) scale(1.9)" fill="#3f8f7a" opacity="0.95"><ellipse cx="0" cy="0" rx="46" ry="33"/><circle cx="54" cy="-6" r="13"/><path d="M-30,-30 L-56,-52 L-20,-38 Z"/><path d="M-30,30 L-56,52 L-20,38 Z"/><path d="M32,-26 L58,-44 L26,-34 Z"/><path d="M32,26 L58,44 L26,34 Z"/><path d="M-46,2 L-72,10 L-46,16 Z"/></g><g transform="translate(880,240) scale(-0.8,0.8)" fill="#ffd166" opacity="0.85"><path d="M0,0 C14,-11 40,-11 54,0 C40,11 14,11 0,0 Z"/><path d="M54,0 L70,-11 L70,11 Z"/><circle cx="16" cy="-2.5" r="2.4" fill="#04141c" opacity=".55"/></g><g transform="translate(960,300) scale(-0.6,0.6)" fill="#ffd166" opacity="0.75"><path d="M0,0 C14,-11 40,-11 54,0 C40,11 14,11 0,0 Z"/><path d="M54,0 L70,-11 L70,11 Z"/><circle cx="16" cy="-2.5" r="2.4" fill="#04141c" opacity=".55"/></g><g transform="translate(220,460) scale(0.7,0.7)" fill="#9ee6de" opacity="0.8"><path d="M0,0 C14,-11 40,-11 54,0 C40,11 14,11 0,0 Z"/><path d="M54,0 L70,-11 L70,11 Z"/><circle cx="16" cy="-2.5" r="2.4" fill="#04141c" opacity=".55"/></g><g transform="translate(200,730) scale(1.6)" stroke="#2ec4b6" fill="none" stroke-width="7" stroke-linecap="round" opacity="0.5"><path d="M-45.0,0 q-12,-55 -4,-108"/><path d="M-30.0,0 q12,-55 4,-108"/><path d="M-15.0,0 q-12,-55 -4,-108"/><path d="M0.0,0 q12,-55 4,-108"/><path d="M15.0,0 q-12,-55 -4,-108"/><path d="M30.0,0 q12,-55 4,-108"/></g><g transform="translate(1000,720) scale(1.3)" stroke="#57d6c8" fill="none" stroke-width="7" stroke-linecap="round" opacity="0.45"><path d="M-45.0,0 q-12,-55 -4,-108"/><path d="M-30.0,0 q12,-55 4,-108"/><path d="M-15.0,0 q-12,-55 -4,-108"/><path d="M0.0,0 q12,-55 4,-108"/><path d="M15.0,0 q-12,-55 -4,-108"/><path d="M30.0,0 q12,-55 4,-108"/></g><g transform="translate(760,730) scale(1.3)" fill="#ff8a5c" opacity="0.6"><path d="M-34,0 q-7.5,-52.800000000000004 3.0,-96 q13.5,33.599999999999994 20.25,96 Z"/><path d="M-8,0 q-8.5,-72.60000000000001 3.4000000000000004,-132 q15.3,46.199999999999996 22.950000000000003,132 Z"/><path d="M22,0 q-7.5,-59.400000000000006 3.0,-108 q13.5,37.8 20.25,108 Z"/><path d="M48,0 q-6.5,-41.800000000000004 2.6,-76 q11.700000000000001,26.599999999999998 17.55,76 Z"/><ellipse cx="6" cy="0" rx="78" ry="13"/></g></svg>