<svg xmlns="http://www.w3.org/2000/svg" viewBox="0 0 1200 750" width="1200" height="750" role="img"><defs><linearGradient id="bg102" x1="0" y1="0" x2="0" y2="1"><stop offset="0" stop-color="#9fe3ea"/><stop offset="0.32" stop-color="#3fb0c2"/><stop offset="1" stop-color="#0c6479"/></linearGradient><radialGradient id="glow102" cx="50%" cy="6%" r="72%"><stop offset="0" stop-color="#ffffff" stop-opacity=".4"/><stop offset="1" stop-color="#ffffff" stop-opacity="0"/></radialGradient></defs><rect width="1200" height="750" fill="url(#bg102)"/><rect width="1200" height="750" fill="url(#glow102)"/><rect y="0" width="1200" height="250" fill="#bfeef4" opacity=".55"/><circle cx="960" cy="96" r="54" fill="#fff6d6" opacity=".85"/><path d="M0,750 L0,250 L0,255.9 L40,260.7 L80,264.8 L120,267.8 L160,269.6 L200,270.0 L240,268.9 L280,266.6 L320,263.0 L360,258.5 L400,253.5 L440,248.2 L480,243.0 L520,238.3 L560,234.4 L600,231.7 L640,230.2 L680,230.1 L720,231.5 L760,234.1 L800,237.9 L840,242.5 L880,247.7 L920,253.0 L960,258.1 L1000,262.6 L1040,266.3 L1080,268.8 L1120,269.9 L1160,269.7 L1200,268.0 L1200,750 Z" fill="#2fa2b6" opacity="0.92"/><path d="M0,750 L0,288 L0,299.3 L40,296.7 L80,293.6 L120,290.0 L160,286.3 L200,282.7 L240,279.4 L280,276.8 L320,275.0 L360,274.1 L400,274.2 L440,275.2 L480,277.2 L520,279.9 L560,283.2 L600,286.8 L640,290.6 L680,294.1 L720,297.2 L760,299.7 L800,301.3 L840,302.0 L880,301.7 L920,300.4 L960,298.3 L1000,295.4 L1040,292.0 L1080,288.3 L1120,284.6 L1160,281.2 L1200,278.2 L1200,750 Z" fill="#1b8ba1" opacity="0.85"/><circle cx="362" cy="687" r="6" fill="none" stroke="#fff" stroke-width="1.6" opacity="0.37"/><circle cx="587" cy="530" r="11" fill="none" stroke="#fff" stroke-width="1.6" opacity="0.40"/><circle cx="401" cy="707" r="12" fill="none" stroke="#fff" stroke-width="1.6" opacity="0.41"/><circle cx="677" cy="580" r="10" fill="none" stroke="#fff" stroke-width="1.6" opacity="0.28"/><circle cx="164" cy="348" r="9" fill="none" stroke="#fff" stroke-width="1.6" opacity="0.24"/><circle cx="1036" cy="93" r="12" fill="none" stroke="#fff" stroke-width="1.6" opacity="0.38"/><circle cx="892" cy="327" r="8" fill="none" stroke="#fff" stroke-width="1.6" opacity="0.30"/><circle cx="523" cy="160" r="3" fill="none" stroke="#fff" stroke-width="1.6" opacity="0.24"/><circle cx="602" cy="258" r="4" fill="none" stroke="#fff" stroke-width="1.6" opacity="0.35"/><circle cx="272" cy="709" r="8" fill="none" stroke="#fff" stroke-width="1.6" opacity="0.36"/><circle cx="1070" cy="319" r="8" fill="none" stroke="#fff" stroke-width="1.6" opacity="0.16"/><circle cx="1094" cy="351" r="11" fill="none" stroke="#fff" stroke-width="1.6" opacity="0.26"/><circle cx="399" cy="152" r="3" fill="none" stroke="#fff" stroke-width="1.6" opacity="0.25"/><circle cx="1166" cy="166" r="4" fill="none" stroke="#fff" stroke-width="1.6" opacity="0.20"/><g transform="translate(430,300)" fill="#08313f" opacity=".85"><ellipse cx="0" cy="0" rx="26" ry="19"/><rect x="14" y="-30" width="9" height="34" rx="4"/><path d="M22,0 q66,-14 128,4 l6,20 q-70,-16 -132,0 Z"/><path d="M150,10 q34,-16 46,4 q-24,20 -46,10 Z"/><path d="M-18,14 q-30,16 -34,44 l20,8 q6,-24 26,-38 Z"/></g><g opacity=".9"><path d="M120,690 q-16,-70 8,-116 q22,54 34,116 Z" fill="#ff8a5c"/><path d="M186,700 q-12,-58 6,-96 q18,44 28,96 Z" fill="#ffb072"/><path d="M980,704 q-14,-64 8,-104 q20,48 30,104 Z" fill="#ff8a5c"/></g><g stroke="#2ec4b6" stroke-width="7" fill="none" stroke-linecap="round" opacity=".55"><path d="M600,712 q14,-56 4,-104"/><path d="M628,714 q-12,-50 -2,-92"/><path d="M656,712 q16,-54 6,-98"/></g><rect y="716" width="1200" height="34" fill="#e7d4b4" opacity=".55"/></svg>